<svg xmlns="http://www.w3.org/2000/svg" version="1.1" xmlns:xlink="http://www.w3.org/1999/xlink" width="1000" height="1000"><style>
    #light-icon {
      display: inline;
    }
    #dark-icon {
      display: none;
    }

    @media (prefers-color-scheme: dark) {
      #light-icon {
        display: none;
      }
      #dark-icon {
        display: inline;
      }
    }
  </style><g id="light-icon"><svg xmlns="http://www.w3.org/2000/svg" version="1.1" xmlns:xlink="http://www.w3.org/1999/xlink" width="1000" height="1000"><g><g transform="matrix(6.214654154496302,0,0,6.214654154496302,0,45.89522093095525)" style="filter: contrast(1) brightness(0.1)"><svg xmlns="http://www.w3.org/2000/svg" version="1.1" xmlns:xlink="http://www.w3.org/1999/xlink" width="160.91" height="146.14"><svg id="Layer_1" data-name="Layer 1" xmlns="http://www.w3.org/2000/svg" viewBox="0 0 160.91 146.14"><defs><style>.cls-1{fill:#fff;}</style></defs><path class="cls-1" d="M58.11,112.6l-8.71,8.71a10.52,10.52,0,0,0,.14,15,10.75,10.75,0,0,0,15-.39l13.42-13.42L64.36,112.18A4.77,4.77,0,0,0,58.11,112.6Z"></path><path class="cls-1" d="M50.38,24.84,65.1,39.55,80,54.42,96.1,70.56,106.43,57a4.76,4.76,0,0,0-.42-6.26L94.84,39.55l15.69-15.69a10.51,10.51,0,0,0,0-14.87h0A10.51,10.51,0,0,0,95.66,9L80,24.68,65.25,10A10.52,10.52,0,1,0,50.38,24.84Z"></path><path class="cls-1" d="M111.5,122.28,94.84,105.62,113,87.46l16.66,16.66a10.52,10.52,0,0,0,14.88-14.87L127.87,72.58l15.69-15.69A10.51,10.51,0,1,0,128.69,42L113,57.71,98.13,72.58,80,90.74,61.81,72.58,77.94,56.45,64.36,46.12a4.76,4.76,0,0,0-6.25.42L46.94,57.71,32.06,72.58,16.37,88.28a10.53,10.53,0,0,0,0,14.87h0a10.53,10.53,0,0,0,14.87,0l15.7-15.69L65.1,105.61,80,120.49l16.66,16.66a10.51,10.51,0,0,0,14.87,0h0A10.52,10.52,0,0,0,111.5,122.28Z"></path><path class="cls-1" d="M40,50.72,32.22,43A10.51,10.51,0,0,0,17.35,57.87L30,70.56,40.37,57A4.78,4.78,0,0,0,40,50.72Z"></path></svg></svg></g></g></svg></g><g id="dark-icon"><svg xmlns="http://www.w3.org/2000/svg" version="1.1" xmlns:xlink="http://www.w3.org/1999/xlink" width="1000" height="1000"><g clip-path="url(#SvgjsClipPath1028)"><rect width="1000" height="1000" fill="#ffffff"></rect><g transform="matrix(4.3502579081474115,0,0,4.3502579081474115,150,182.12665465166867)"><svg xmlns="http://www.w3.org/2000/svg" version="1.1" xmlns:xlink="http://www.w3.org/1999/xlink" width="160.91" height="146.14"><svg id="Layer_1" data-name="Layer 1" xmlns="http://www.w3.org/2000/svg" viewBox="0 0 160.91 146.14"><defs><style>.cls-1{fill:#3d1c66;}</style><clipPath id="SvgjsClipPath1028"><rect width="1000" height="1000" x="0" y="0" rx="350" ry="350"></rect></clipPath></defs><path class="cls-1" d="M58.11,112.6l-8.71,8.71a10.52,10.52,0,0,0,.14,15,10.75,10.75,0,0,0,15-.39l13.42-13.42L64.36,112.18A4.77,4.77,0,0,0,58.11,112.6Z"></path><path class="cls-1" d="M50.38,24.84,65.1,39.55,80,54.42,96.1,70.56,106.43,57a4.76,4.76,0,0,0-.42-6.26L94.84,39.55l15.69-15.69a10.51,10.51,0,0,0,0-14.87h0A10.51,10.51,0,0,0,95.66,9L80,24.68,65.25,10A10.52,10.52,0,1,0,50.38,24.84Z"></path><path class="cls-1" d="M111.5,122.28,94.84,105.62,113,87.46l16.66,16.66a10.52,10.52,0,0,0,14.88-14.87L127.87,72.58l15.69-15.69A10.51,10.51,0,1,0,128.69,42L113,57.71,98.13,72.58,80,90.74,61.81,72.58,77.94,56.45,64.36,46.12a4.76,4.76,0,0,0-6.25.42L46.94,57.71,32.06,72.58,16.37,88.28a10.53,10.53,0,0,0,0,14.87h0a10.53,10.53,0,0,0,14.87,0l15.7-15.69L65.1,105.61,80,120.49l16.66,16.66a10.51,10.51,0,0,0,14.87,0h0A10.52,10.52,0,0,0,111.5,122.28Z"></path><path class="cls-1" d="M40,50.72,32.22,43A10.51,10.51,0,0,0,17.35,57.87L30,70.56,40.37,57A4.78,4.78,0,0,0,40,50.72Z"></path></svg></svg></g></g></svg></g></svg>